<?xml version="1.0" encoding="UTF-8"?>
<svg xmlns="http://www.w3.org/2000/svg" version="1.1" viewBox="0 0 82.32 93.55">
  <defs>
    <style>
      .cls-1 {
        fill: #a03c21;
      }

      .cls-2 {
        fill: #e2b0a1;
      }

      .cls-3 {
        fill: #1d1d1b;
      }

      .cls-4 {
        fill: #fff;
      }

      .cls-5 {
        fill: none;
        stroke: #fff;
        stroke-miterlimit: 10;
        stroke-width: 1.33px;
      }
    </style>
  </defs>
  <!-- Generator: Adobe Illustrator 28.7.2, SVG Export Plug-In . SVG Version: 1.2.0 Build 154)  -->
  <g>
    <g id="Ebene_1">
      <g>
        <path class="cls-3" d="M6.47,76.97v-5.04l1.4,5.04h1.37l1.41-5.04v5.04h1.33v-6.4h-2.14l-1.27,4.37-1.28-4.37h-2.13v6.4h1.33ZM14.1,76.29c.59.53,1.4.79,2.42.79s1.82-.27,2.41-.8c.67-.6,1.01-1.44,1.01-2.51s-.32-1.88-.95-2.45c-.64-.57-1.46-.86-2.47-.86-.7,0-1.29.12-1.78.36-.49.24-.89.61-1.19,1.1-.3.49-.46,1.12-.46,1.88,0,1.05.34,1.88,1.01,2.48h0ZM15.1,72.1c.36-.36.84-.54,1.42-.54s1.05.18,1.41.53.54.9.54,1.65-.18,1.32-.55,1.68c-.37.37-.83.55-1.39.55s-1.02-.18-1.4-.55c-.38-.37-.56-.92-.56-1.66s.18-1.31.55-1.66h0ZM22.4,76.97v-4.17l2.84,4.17h1.43v-6.4h-1.33v4.27l-2.89-4.27h-1.39v6.4h1.33ZM31.18,76.97v-5.32h2.09v-1.08h-5.61v1.08h2.1v5.32h1.42ZM39.56,76.97v-1.08h-3.95v-1.74h3.55v-1.08h-3.55v-1.42h3.82v-1.08h-5.24v6.4h5.37ZM43.3,77.08c.98,0,1.7-.19,2.16-.57.46-.38.69-.84.69-1.4,0-.38-.08-.71-.25-.98-.17-.27-.41-.49-.73-.66-.32-.17-.84-.33-1.55-.49-.68-.14-1.11-.27-1.3-.39-.19-.12-.28-.27-.28-.44s.1-.32.31-.44c.21-.12.5-.18.89-.18s.68.07.89.21c.21.14.34.38.41.72l1.43-.06c-.03-.62-.27-1.1-.74-1.44-.47-.33-1.11-.5-1.94-.5-.55,0-1.02.07-1.39.21-.38.14-.67.35-.88.63-.21.28-.32.59-.32.94,0,.3.08.58.25.84.17.26.39.47.67.63.28.16.73.31,1.33.44.68.15,1.1.26,1.28.33.18.07.31.15.39.25.09.1.13.23.13.37,0,.25-.12.45-.37.62-.25.17-.59.25-1.02.25-.87,0-1.38-.41-1.54-1.23l-1.39.12c.2,1.46,1.16,2.2,2.89,2.2h0ZM49.87,77.08c.98,0,1.7-.19,2.16-.57.46-.38.69-.84.69-1.4,0-.38-.08-.71-.25-.98-.17-.27-.41-.49-.73-.66-.32-.17-.84-.33-1.55-.49-.68-.14-1.11-.27-1.3-.39-.19-.12-.28-.27-.28-.44s.1-.32.31-.44c.21-.12.5-.18.89-.18s.68.07.89.21c.21.14.34.38.41.72l1.43-.06c-.03-.62-.27-1.1-.74-1.44-.47-.33-1.11-.5-1.94-.5-.55,0-1.02.07-1.39.21-.38.14-.67.35-.88.63-.21.28-.32.59-.32.94,0,.3.08.58.25.84.17.26.39.47.67.63.28.16.73.31,1.33.44.68.15,1.1.26,1.28.33.18.07.31.15.39.25s.13.23.13.37c0,.25-.12.45-.37.62-.25.17-.59.25-1.02.25-.87,0-1.38-.41-1.54-1.23l-1.39.12c.2,1.46,1.16,2.2,2.89,2.2h0ZM54.64,76.29c.59.53,1.4.79,2.42.79s1.82-.27,2.41-.8c.67-.6,1.01-1.44,1.01-2.51s-.32-1.88-.95-2.45c-.64-.57-1.46-.86-2.47-.86-.7,0-1.29.12-1.78.36-.49.24-.89.61-1.19,1.1-.3.49-.46,1.12-.46,1.88,0,1.05.34,1.88,1.01,2.48h0ZM55.65,72.1c.36-.36.84-.54,1.42-.54s1.05.18,1.41.53c.36.35.54.9.54,1.65s-.18,1.32-.55,1.68c-.37.37-.83.55-1.39.55s-1.02-.18-1.4-.55c-.38-.37-.56-.92-.56-1.66s.18-1.31.55-1.66h0ZM63.02,76.97v-2.67h.29c.33,0,.57.02.72.07.15.05.29.14.42.26.13.13.39.44.76.95l1.03,1.39h1.7l-.86-1.25c-.34-.5-.62-.85-.82-1.04-.2-.19-.45-.37-.76-.53.59-.08,1.05-.27,1.38-.58.32-.31.48-.71.48-1.21,0-.4-.11-.74-.32-1.02-.21-.28-.48-.48-.81-.6-.33-.11-.88-.17-1.64-.17h-3v6.4h1.42ZM63.02,71.65h1.12c.64,0,1.02.02,1.16.05.19.05.34.13.45.26.11.12.16.29.16.49s-.05.38-.16.51c-.11.13-.25.21-.43.26-.18.04-.59.06-1.23.06h-1.06v-1.62h0ZM70.09,76.97v-6.4h-1.42v6.4h1.42Z"/>
        <path class="cls-3" d="M8.34,83.72v-.57h-2.65v-4.29h-.71v4.87h3.36ZM9.36,83.72l.58-1.48h2.26l.62,1.48h.81l-2.2-4.87h-.76l-2.07,4.87h.75ZM10.75,80.3c.13-.31.22-.62.29-.93.08.26.21.6.38,1.01l.56,1.35h-1.83l.6-1.43h0ZM14.87,83.72v-3.83l2.82,3.83h.73v-4.87h-.68v3.83l-2.82-3.83h-.73v4.87h.68ZM21.54,83.72c.55,0,1-.08,1.34-.24.34-.16.62-.43.84-.82.22-.38.33-.85.33-1.4,0-.43-.06-.8-.19-1.11-.13-.31-.31-.57-.54-.78-.23-.21-.5-.35-.81-.42-.24-.06-.59-.09-1.05-.09h-1.85v4.87h1.94ZM20.31,79.43h1.13c.41,0,.72.03.91.1.28.1.51.28.69.57.18.28.27.67.27,1.16,0,.46-.08.86-.25,1.19-.13.25-.31.43-.55.54-.24.11-.59.17-1.05.17h-1.14v-3.72h0ZM29.06,83.72v-.57h-3.3v-1.66h2.97v-.58h-2.97v-1.49h3.17v-.57h-3.88v4.87h4.01ZM30.42,83.36c.39.3.92.45,1.59.45.43,0,.79-.06,1.09-.18.3-.12.54-.29.72-.52.18-.23.26-.48.26-.76s-.08-.52-.25-.73c-.17-.2-.41-.37-.74-.49-.21-.08-.59-.17-1.12-.28-.54-.11-.89-.22-1.05-.33-.16-.11-.23-.26-.23-.46,0-.21.11-.39.32-.52.21-.13.52-.2.92-.2s.7.08.92.23c.22.15.35.39.38.7l.68-.05c-.01-.3-.1-.55-.27-.77-.17-.22-.4-.39-.7-.51-.3-.12-.65-.18-1.05-.18-.58,0-1.04.12-1.39.38-.34.25-.51.57-.51.97,0,.22.06.42.18.59.12.17.29.32.5.43.21.11.57.23,1.08.34.57.12.94.22,1.11.29.17.07.3.16.38.26.08.11.13.23.13.38,0,.25-.12.44-.35.6-.23.15-.56.23-.99.23-.29,0-.56-.05-.8-.14-.24-.09-.42-.21-.54-.36-.13-.15-.21-.36-.24-.63l-.67.05c.01.51.22.91.61,1.21h0ZM37.32,83.72l2.1-4.87h-.72l-1.45,3.54c-.11.26-.2.53-.29.8-.08-.26-.17-.52-.28-.8l-1.4-3.54h-.77l2.09,4.87h.73ZM44.08,83.72v-.57h-3.3v-1.66h2.97v-.58h-2.97v-1.49h3.17v-.57h-3.88v4.87h4.01ZM45.76,83.72v-2.16h.82c.24,0,.42.02.56.07.13.05.27.14.41.28.14.14.35.4.63.8l.72,1.01h.89l-.94-1.33c-.16-.23-.35-.43-.56-.62-.1-.09-.26-.18-.46-.27.49-.06.87-.21,1.12-.44.26-.23.39-.53.39-.89,0-.28-.08-.52-.23-.73-.15-.21-.35-.36-.58-.45-.24-.09-.6-.14-1.1-.14h-2.38v4.87h.71ZM45.76,79.39h1.7c.38,0,.67.07.86.21.19.14.29.33.29.58,0,.17-.05.32-.15.45-.1.13-.24.22-.41.28-.17.06-.43.09-.76.09h-1.53v-1.61h0ZM52.49,83.72c.47,0,.85-.05,1.12-.15.27-.1.49-.26.65-.49.16-.22.24-.48.24-.78s-.09-.55-.27-.75c-.18-.2-.43-.35-.74-.43.24-.11.42-.25.55-.43.13-.18.2-.38.2-.6,0-.24-.08-.46-.23-.66-.15-.2-.35-.34-.59-.44-.24-.09-.56-.14-.97-.14h-2.02v4.87h2.05ZM51.16,79.43h1.08c.39,0,.66.02.81.07.15.04.27.12.36.24.09.12.14.26.14.44,0,.19-.05.34-.15.45-.1.11-.24.19-.43.23-.13.03-.34.05-.65.05h-1.16v-1.47h0ZM51.16,81.48h1.24c.37,0,.64.03.81.09.17.06.31.15.41.28.1.13.15.28.15.47,0,.2-.05.36-.16.5-.11.13-.26.23-.46.28-.14.04-.36.06-.65.06h-1.34v-1.67h0ZM55.64,83.72l.58-1.48h2.26l.62,1.48h.81l-2.2-4.87h-.76l-2.07,4.87h.75ZM57.03,80.3c.13-.31.22-.62.29-.93.08.26.21.6.38,1.01l.56,1.35h-1.83l.6-1.43h0ZM61.15,83.72v-3.83l2.82,3.83h.73v-4.87h-.68v3.83l-2.82-3.83h-.73v4.87h.68ZM67.82,83.72c.55,0,1-.08,1.34-.24.34-.16.62-.43.84-.82.22-.38.33-.85.33-1.4,0-.43-.06-.8-.19-1.11-.13-.31-.31-.57-.54-.78-.23-.21-.5-.35-.81-.42-.24-.06-.59-.09-1.05-.09h-1.85v4.87h1.94ZM66.59,79.43h1.13c.41,0,.72.03.91.1.28.1.51.28.69.57.18.28.27.67.27,1.16,0,.46-.08.86-.25,1.19-.13.25-.31.43-.55.54-.24.11-.59.17-1.05.17h-1.14v-3.72h0Z"/>
        <polygon class="cls-1" points="70.42 68.89 70.42 4.74 4.92 4.74 4.92 68.89 12.21 68.89 12.21 51.64 41.81 51.64 41.81 68.89 70.42 68.89 70.42 68.89"/>
        <polygon class="cls-1" points="75.1 8.58 56.9 25.65 62.55 44.91 80.81 28.97 75.1 8.58 75.1 8.58"/>
        <polygon class="cls-5" points="75.1 8.58 56.9 25.65 62.55 44.91 80.81 28.97 75.1 8.58 75.1 8.58"/>
        <polygon class="cls-2" points="4.92 68.89 15.59 68.89 15.59 52.26 22.28 68.89 31.17 68.89 37.87 52.26 37.87 68.89 48.55 68.89 48.55 25.26 32.79 25.26 26.76 51.8 20.68 25.26 4.92 25.26 4.92 68.89 4.92 68.89"/>
        <path class="cls-4" d="M47.03,66.72v-2.4c0-1.04-.03-1.7-.08-1.99-.08-.41-.27-.77-.6-1.07-.32-.3-.72-.45-1.18-.45-.38,0-.71.12-.98.35-.27.24-.46.56-.57.98-.12-.29-.3-.53-.55-.72s-.53-.28-.84-.28c-.33,0-.63.11-.9.32-.26.22-.45.48-.55.79-.1.31-.16.86-.16,1.63v2.83h6.4ZM41.7,64.47c0-.75.01-1.21.04-1.37.03-.16.1-.29.22-.41.12-.11.27-.17.46-.17.21,0,.38.07.5.21.12.14.2.33.23.57.01.13.02.48.02,1.05v.94h-1.48v-.82h0ZM44.24,64.14c0-.61.03-1.02.08-1.21.05-.2.14-.36.28-.48.13-.12.31-.18.52-.18s.37.06.5.17c.13.11.22.25.27.41.04.16.07.54.07,1.12v1.32h-1.71v-1.15h0ZM40.63,56.06v1.51l6.4,2.75v-1.51l-1.45-.58v-2.83l1.45-.62v-1.54l-6.4,2.83h0ZM44.5,57.78l-2.37-.96,2.37-.97v1.93h0ZM47.03,50.11h-2.68l-3.71-2.6v1.64l2.53,1.64-2.53,1.66v1.67l3.7-2.58h2.69v-1.42h0ZM47.03,41.44h-1.08v3.95h-1.74v-3.55h-1.08v3.55h-1.42v-3.82h-1.08v5.24h6.4v-5.37h0ZM47.03,38.81h-2.67v-.29c0-.33.02-.57.07-.72.05-.15.14-.29.26-.42.13-.13.44-.39.94-.76l1.39-1.03v-1.7l-1.25.86c-.5.34-.85.62-1.04.82-.19.2-.37.45-.53.76-.08-.59-.27-1.05-.58-1.38-.31-.32-.71-.48-1.21-.48-.4,0-.74.11-1.02.32-.28.21-.48.48-.6.81-.11.33-.17.88-.17,1.64v3h6.4v-1.42h0ZM41.72,38.81v-1.12c0-.64.02-1.02.05-1.16.05-.19.13-.34.26-.45.12-.11.29-.16.49-.16s.38.05.51.16c.13.11.21.25.26.43.04.18.06.59.06,1.23v1.06h-1.62ZM47.03,31.77h-4.17l4.17-2.84v-1.43h-6.4v1.33h4.27l-4.27,2.89v1.39h6.4v-1.33h0Z"/>
      </g>
    </g>
  </g>
</svg>
